<svg width="64" height="62" viewBox="0 0 64 62" fill="none" xmlns="http://www.w3.org/2000/svg">
<path d="M22.1387 61.0617L6.1654 49.5197L0.0644531 30.8398L6.1654 12.1614L22.1387 0.617798H41.8867L57.8583 12.1614L63.9592 30.8398L57.8583 49.5197L41.8867 61.0617H22.1387ZM9.96848 14.9137L4.76532 30.8497L9.96848 46.7857L23.5905 56.6312H40.4282L54.0502 46.7857L59.2533 30.8497L54.0502 14.9137L40.4282 5.06826H23.5905L9.96848 14.9137ZM25.3861 26.0656L44.0761 14.3228L38.6243 35.6355L19.9343 47.3767L25.3861 26.0656ZM25.1491 40.237L32.7903 35.4346L35.7657 33.5655L28.2463 28.1306L25.1491 40.237Z" fill="#05D182"/>
</svg>
