<svg width="267" height="83" viewBox="0 0 267 83" fill="none" xmlns="http://www.w3.org/2000/svg">
<path d="M106.331 70.467L113.151 68.143C113.638 69.5536 114.507 70.8035 115.661 71.7555C116.815 72.7075 118.211 73.3248 119.695 73.5396C121.179 73.7545 122.693 73.5586 124.072 72.9735C125.452 72.3883 126.642 71.4366 127.513 70.2226C128.384 69.0087 128.903 67.5795 129.011 66.0918C129.119 64.6042 128.814 63.1156 128.127 61.7894C127.441 60.4632 126.401 59.3507 125.121 58.574C123.841 57.7973 122.37 57.3863 120.871 57.3862V57.3447C117.261 57.3498 113.764 56.0891 110.995 53.784C108.227 51.4788 106.363 48.2768 105.733 44.7406C105.102 41.2043 105.744 37.5601 107.547 34.4482C109.349 31.3364 112.196 28.956 115.588 27.7253C118.98 26.4946 122.699 26.4924 126.093 27.7191C129.486 28.9458 132.336 31.3229 134.142 34.4326C135.948 37.5424 136.595 41.1858 135.969 44.7228C135.342 48.2598 133.482 51.464 130.717 53.7724C132.536 55.2838 133.979 57.1935 134.934 59.352C135.888 61.5105 136.327 63.8594 136.217 66.2149C136.107 68.5704 135.451 70.8686 134.3 72.9299C133.149 74.9912 131.534 76.7596 129.581 78.0969C127.629 79.4342 125.392 80.304 123.046 80.6384C120.699 80.9728 118.307 80.7627 116.055 80.0245C113.804 79.2863 111.755 78.04 110.068 76.3831C108.382 74.7262 107.103 72.7037 106.333 70.4736L106.331 70.467ZM112.672 42.0893C112.675 44.2531 113.54 46.3277 115.077 47.8578C116.615 49.388 118.701 50.2489 120.876 50.2515V50.2084C121.091 50.2084 121.303 50.2084 121.515 50.225C123.105 50.101 124.625 49.5185 125.888 48.5486C127.15 47.5788 128.102 46.2638 128.625 44.7646C129.148 43.2654 129.22 41.647 128.832 40.1076C128.445 38.5682 127.615 37.1745 126.443 36.0973C125.272 35.02 123.81 34.3058 122.237 34.0422C120.664 33.7785 119.048 33.9769 117.586 34.6129C116.125 35.249 114.881 36.2951 114.008 37.6233C113.135 38.9515 112.67 40.504 112.671 42.091L112.672 42.0893ZM139.905 57.7398L153.203 18.6634H160.731L147.434 57.7398H139.905ZM33.5303 42.4429V27.0763H40.7392V42.4429C40.7392 44.5957 41.599 46.6604 43.1293 48.1827C44.6596 49.7051 46.7352 50.5603 48.8994 50.5603C51.0637 50.5603 53.1392 49.7051 54.6696 48.1827C56.1999 46.6604 57.0596 44.5957 57.0596 42.4429V27.0763H64.2686V42.4429C64.2686 46.4981 62.6492 50.3872 59.7666 53.2547C56.884 56.1222 52.9744 57.7331 48.8978 57.7331C44.8212 57.7331 40.9115 56.1222 38.0289 53.2547C35.1463 50.3872 33.5269 46.4981 33.5269 42.4429H33.5303ZM5.00464 57.7331V49.9129H12.3088C13.1342 49.9129 13.9515 49.7511 14.7141 49.4368C15.4767 49.1226 16.1696 48.6619 16.7532 48.0812C17.3368 47.5006 17.7996 46.8112 18.1154 46.0525C18.4311 45.2939 18.5935 44.4808 18.5933 43.6597V18.665H26.4681V43.653C26.4677 47.3892 24.9753 50.9722 22.3194 53.614C19.6634 56.2557 16.0613 57.7398 12.3054 57.7398L5.00464 57.7331ZM93.4217 57.4493V42.0843C93.391 39.9513 92.5177 37.916 90.9906 36.4185C89.4634 34.9209 87.4051 34.0813 85.2607 34.0813C83.1162 34.0813 81.0579 34.9209 79.5308 36.4185C78.0036 37.916 77.1303 39.9513 77.0996 42.0843V57.4493H69.8906V42.0827C69.8906 38.0274 71.5101 34.1383 74.3927 31.2708C77.2753 28.4033 81.1849 26.7924 85.2615 26.7924C89.3381 26.7924 93.2477 28.4033 96.1303 31.2708C99.0129 34.1383 100.632 38.0274 100.632 42.0827V57.4476L93.4217 57.4493ZM167.327 54.9925C165.629 53.9358 164.156 52.5561 162.994 50.9325C161.832 49.3088 161.003 47.4731 160.556 45.5305C159.659 41.6355 160.317 37.5464 162.391 34.1246C163.425 32.4268 164.789 30.9516 166.404 29.7855C168.019 28.6195 169.852 27.7862 171.795 27.3345C173.738 26.8828 175.753 26.8219 177.72 27.1552C179.687 27.4886 181.567 28.2095 183.251 29.2758C185.69 30.7908 187.648 32.9639 188.894 35.5423C189.394 36.5585 189.773 37.6292 190.024 38.7328L190.498 40.6235L167.623 45.9355C168.464 47.6788 169.872 49.0884 171.62 49.9359C173.367 50.7834 175.351 51.0192 177.25 50.6051C178.542 50.3087 179.746 49.7161 180.767 48.8745C181.788 48.0329 182.597 46.9657 183.13 45.7579L189.071 48.477C188.129 50.519 186.75 52.3318 185.031 53.789C183.219 55.3265 181.057 56.4016 178.733 56.9214C177.616 57.1752 176.475 57.3038 175.329 57.3049C172.495 57.3134 169.718 56.5132 167.327 54.9991V54.9925ZM173.335 33.6548C171.666 34.0478 170.153 34.9269 168.989 36.1797C167.825 37.4326 167.063 39.0023 166.8 40.6883L182.248 37.0827C181.27 35.6982 179.901 34.6334 178.314 34.0232C176.728 33.413 174.995 33.2848 173.335 33.6548ZM138.49 18.2069L135.346 10.199V17.3171L135.795 18.2069H131.901L132.35 17.3171V4.20311L131.901 3.31335H135.494L138.638 11.3245V4.20477L138.191 3.31501H142.082L141.635 4.20311V17.3171L142.084 18.2069H138.49ZM121.265 18.2069L119.171 16.1219V5.40163L121.266 3.31667H126.356L128.452 5.40163V16.1219L126.358 18.2069H121.265ZM122.163 15.2272H125.457V6.29305H122.163V15.2272ZM109.283 18.2069L109.732 17.3171V6.29471H107.342L106.446 6.74291V3.31667H116.02V6.75287L115.122 6.30467H112.727V17.3271L113.176 18.2168L109.283 18.2069ZM94.4496 18.2069L94.8985 17.3171V4.20311L94.4496 3.31335H103.282V6.75287L102.385 6.30467H97.8906V9.31259H100.894L101.792 8.86273V12.7289L100.894 12.2807H97.8906V17.3171L98.3395 18.2069H94.4496ZM87.3141 18.2069L87.4809 17.1063L87.1021 15.6521H83.022L82.6416 17.1063L82.8084 18.2069H79.0654L79.4476 17.3868L82.9853 4.17987L82.6516 3.31501H87.4426L87.1088 4.17987L90.6482 17.3868L91.0304 18.2069H87.3141ZM83.7763 12.7936H86.3629L85.0679 7.84515L83.7763 12.7936ZM71.9082 18.2069L71.9682 17.2441L70.715 13.8444H69.6637V17.3171L70.1109 18.2069H66.2177L66.6666 17.3171V4.20311L66.2161 3.31335H73.5586L75.6545 5.39831V11.7578L73.8089 13.5937L75.1622 17.0665L75.9532 18.2052L71.9082 18.2069ZM69.6637 10.8664H72.6574V6.29305H69.6637V10.8664ZM58.7417 18.2069L58.7868 17.4765L56.0817 11.9205H55.5961V17.3171L56.0467 18.2069H52.1518L52.6024 17.3171V4.20311L52.1518 3.31335H56.0467L55.5961 4.20311V8.93909H56.1168L58.7868 4.02217L58.7434 3.31335H62.6349L61.909 4.22801L58.67 10.038L62.1743 17.0532L63.0872 18.1986L58.7417 18.2069Z" fill="#05D182"/>
<path d="M222.139 68.0617L206.165 56.5197L200.064 37.8398L206.165 19.1614L222.139 7.6178H241.887L257.858 19.1614L263.959 37.8398L257.858 56.5197L241.887 68.0617H222.139ZM209.968 21.9137L204.765 37.8497L209.968 53.7857L223.59 63.6312H240.428L254.05 53.7857L259.253 37.8497L254.05 21.9137L240.428 12.0683H223.59L209.968 21.9137ZM225.386 33.0656L244.076 21.3228L238.624 42.6355L219.934 54.3767L225.386 33.0656ZM225.149 47.237L232.79 42.4346L235.766 40.5655L228.246 35.1306L225.149 47.237Z" fill="#05D182"/>
</svg>
